<svg xmlns="http://www.w3.org/2000/svg" viewBox="0 0 520 120" role="img" aria-label="DESIRE"><defs><linearGradient id="g" x1="0" x2="1"><stop stop-color="#ec4899"/><stop offset="1" stop-color="#e11d48"/></linearGradient></defs><path fill="url(#g)" d="M55 96C17 70 5 54 5 33 5 14 20 2 37 2c11 0 21 6 28 15C72 8 82 2 93 2c17 0 32 12 32 31 0 21-12 37-50 63L65 103z"/><path fill="#fff" d="M40 30c9-9 20-6 25 3 5-9 16-12 25-3 9 10 2 23-25 42-27-19-34-32-25-42z" opacity=".9"/><text x="145" y="82" font-family="Arial,Helvetica,sans-serif" font-size="72" font-weight="800" letter-spacing="5" fill="url(#g)">DESIRE</text></svg>